#!OML:ASF F:\VICON\USERDATA\INSTALL\rory3\rory3.ASF
:FULLY-SPECIFIED
:DEGREES
298
root 0.604178 17.9329 21.2791 -2.25142 3.09488 -0.787241
lowerback 10.2352 -1.49838 -1.79608
upperback 0.369135 -2.07453 2.33071
thorax -5.2058 -0.952275 3.75395
lowerneck -16.9921 -2.7599 -2.1113
upperneck 16.9567 -3.50404 1.2805
head 8.11654 -1.66836 0.356909
rclavicle -3.40419e-015 -3.18055e-015
rhumerus -37.4309 -31.3458 -69.226
rradius 19.9934
rwrist 12.0732
rhand -17.0274 19.6825
rfingers 7.12502
rthumb 9.20894 -10.0965
lclavicle -3.40419e-015 -3.18055e-015
lhumerus -25.3454 -0.238509 83.3289
lradius 32.0717
lwrist 10.9155
lhand -22.8273 30.9408
lfingers 7.12502
lthumb 3.60986 60.89
rfemur -23.8339 2.84913 25.2766
rtibia 27.7838
rfoot -2.68516 -4.48921
rtoes 8.92879
lfemur 9.04792 -3.1447 -21.1799
ltibia 38.355
lfoot 10.138 -20.7172
ltoes -8.60871
299
root 0.585237 17.9621 21.4792 -2.37351 3.07363 -0.959038
lowerback 10.2757 -1.45257 -1.67633
upperback 0.453346 -1.99728 2.38733
thorax -5.14799 -0.918435 3.73409
lowerneck -17.1285 -2.78006 -2.19685
upperneck 16.8542 -3.52544 1.38343
head 8.11021 -1.67282 0.401402
rclavicle 3.67752e-015 -5.1684e-015
rhumerus -37.42 -31.5476 -69.1634
rradius 20.0611
rwrist 11.9765
rhand -16.7882 19.8342
rfingers 7.12502
rthumb 9.43975 -9.93444
lclavicle 3.67752e-015 -5.1684e-015
lhumerus -25.5762 -0.21487 83.49
lradius 32.1456
lwrist 11.006
lhand -22.6724 31.9248
lfingers 7.12502
lthumb 3.7595 61.8714
rfemur -23.2245 2.84222 25.6875
rtibia 28.1579
rfoot -3.27717 -5.42654
rtoes 13.8854
lfemur 7.81976 -2.85388 -20.6318
ltibia 40.5455
lfoot 13.1657 -21.4417
ltoes -5.69454
300
root 0.565123 17.9854 21.6772 -2.55474 2.99497 -1.01001
lowerback 10.3796 -1.3795 -1.69398
upperback 0.492187 -1.90178 2.409
thorax -5.1713 -0.870574 3.75641
lowerneck -17.1814 -2.7786 -2.10158
upperneck 16.961 -3.51773 1.2309
head 8.15035 -1.67801 0.334686
rclavicle -1.21507e-014 2.38542e-015
rhumerus -37.5876 -31.4375 -69.1661
rradius 20.2589
rwrist 11.6631
rhand -16.444 20.3737
rfingers 7.12502
rthumb 9.77183 -9.37954
lclavicle -1.21507e-014 2.38542e-015
lhumerus -26.1361 -0.0614728 83.6283
lradius 32.5411
lwrist 10.9318
lhand -21.9861 33.0777
lfingers 7.12502
lthumb 4.42224 63.0115
rfemur -22.4796 2.82708 25.9729
rtibia 28.4025
rfoot -3.27107 -6.56509
rtoes 20.9811
lfemur 6.64304 -2.60903 -20.2658
ltibia 42.8196
lfoot 15.7795 -22.3315
ltoes -3.39037
301
root 0.547141 18.0026 21.8712 -2.71065 2.88272 -1.33416
lowerback 10.4678 -1.31635 -1.40196
upperback 0.516765 -1.78006 2.4734
thorax -5.21089 -0.816132 3.64404
lowerneck -17.2818 -2.7486 -1.91297
upperneck 17.0844 -3.49011 1.0572
head 8.20198 -1.66955 0.247287
rclavicle 3.85145e-015 -1.07344e-014
rhumerus -37.5975 -31.1881 -69.3504
rradius 20.4264
rwrist 11.2647
rhand -16.5278 20.6284
rfingers 7.12502
rthumb 9.69093 -9.1287
lclavicle 3.85145e-015 -1.07344e-014
lhumerus -26.6686 -0.00272782 83.7118
lradius 32.872
lwrist 10.8242
lhand -21.8074 33.2141
lfingers 7.12502
lthumb 4.59471 63.1443
rfemur -21.6991 2.87191 26.5369
rtibia 28.4985
rfoot -3.01983 -5.15363
rtoes 11.875
lfemur 5.3983 -2.40607 -19.6221
ltibia 45.2093
lfoot 18.2605 -23.3627
ltoes -1.68814
302
root 0.528385 18.0225 22.0504 -2.75773 2.89029 -1.57594
lowerback 10.6538 -1.28311 -1.21937
upperback 0.490397 -1.7093 2.54885
thorax -5.35105 -0.781888 3.61741
lowerneck -17.2252 -2.73388 -1.88254
upperneck 16.9535 -3.47081 1.02768
head 8.14665 -1.66216 0.236427
rclavicle 1.36913e-014 1.59028e-014
rhumerus -37.3468 -30.9458 -69.5873
rradius 20.3982
rwrist 11.0703
rhand -16.6319 20.4566
rfingers 7.12502
rthumb 9.59051 -9.30511
lclavicle 1.36913e-014 1.59028e-014
lhumerus -26.8315 -0.114428 83.8968
lradius 32.7794
lwrist 10.9669
lhand -22.0132 32.3642
lfingers 7.12502
lthumb 4.39607 62.2986
rfemur -20.9742 3.06465 26.9678
rtibia 28.4851
rfoot -3.09119 -4.74951
rtoes 10.5921
lfemur 3.86853 -2.34484 -19.0454
ltibia 47.6753
lfoot 21.1525 -24.0832
ltoes 0.883819
303
root 0.508723 18.045 22.236 -2.94126 3.03293 -2.22799
lowerback 10.8599 -1.32801 -0.591936
upperback 0.561965 -1.68317 2.70455
thorax -5.4065 -0.782104 3.4278
lowerneck -17.1683 -2.79418 -1.98578
upperneck 16.752 -3.57058 1.25458
head 8.07713 -1.69369 0.318812
rclavicle 1.22998e-014 5.1684e-015
rhumerus -36.8453 -30.2478 -70.2086
rradius 20.4169
rwrist 10.3898
rhand -16.5715 20.2568
rfingers 7.12502
rthumb 9.64876 -9.50222
lclavicle 1.22998e-014 5.1684e-015
lhumerus -26.8751 -0.56328 84.1187
lradius 32.6443
lwrist 11.4555
lhand -22.4486 31.8814
lfingers 7.12502
lthumb 3.97558 61.8241
rfemur -20.0317 3.05187 27.8463
rtibia 28.3419
rfoot -3.23558 -5.16625
rtoes 11.7839
lfemur 2.31736 -2.30798 -17.971
ltibia 50.2399
lfoot 24.0278 -24.413
ltoes 3.16071
304
root 0.494723 18.0658 22.4285 -3.07822 3.13413 -2.72323
lowerback 10.8373 -1.32718 -0.0536702
upperback 0.678941 -1.61428 2.77429
thorax -5.28807 -0.762532 3.18221
lowerneck -17.149 -2.84953 -1.86373
upperneck 16.6148 -3.67687 1.25901
head 8.02727 -1.73632 0.288825
rclavicle -2.82274e-014 3.22031e-014
rhumerus -36.3843 -29.3932 -70.9962
rradius 20.6579
rwrist 9.49068
rhand -16.637 20.4476
rfingers 7.12502
rthumb 9.58556 -9.31439
lclavicle -2.82274e-014 3.22031e-014
lhumerus -26.9123 -1.31841 84.3976
lradius 32.2908
lwrist 11.6314
lhand -23.3036 30.0532
lfingers 7.12502
lthumb 3.14991 60.0097
rfemur -19.097 2.98153 28.5279
rtibia 28.1602
rfoot -3.66327 -5.67165
rtoes 11.4682
lfemur 0.855784 -2.20151 -17.1623
ltibia 52.7191
lfoot 25.6022 -24.5895
ltoes 2.32377
